/* XPM */
static char *_e45468240234578b115e6a833470de7x7UQ1xuQEUKFDsZG[] = {
/* columns rows colors chars-per-pixel */
"32 32 7 1 ",
"  c #6c947c",
". c black",
"X c #1A2B0B",
"o c #314E16",
"O c #524B24",
"+ c #A40000",
"@ c red",
/* pixels */
"                                ",
"                                ",
"                                ",
"                ..              ",
"                .O.             ",
"                .O.             ",
"             .. .O. ..          ",
"             .O.OO..O.          ",
"             .O.OO.OO.          ",
"             .oOOOOo.           ",
"              .oXXo.            ",
"            ........            ",
"           .++++++++.           ",
"          .++@@@++@@@.          ",
"          .@@@@@@@@@@.          ",
"         .@@@@@@@@@@@.          ",
"         .@..@@..@@@@.          ",
"         .@.@@@.@@@@@.          ",
"     ... .@@@@@@@@@@.   ...     ",
"    .@@@..@@@@@@@@++.  .@@@.    ",
"    .@@@..@@@@@@@@@@.  .@@@.    ",
"    .@@+..@@@@@@@@@@.  .+@@.    ",
"     ...  .+@@@++@@@.   ...     ",
"          .@@@@@@@@@.           ",
"           .@@@@@@@@.           ",
"           .@@@@@@@+.           ",
"            ..+@@@@@.           ",
"              .++++.            ",
"               ....             ",
"                                ",
"                                ",
"                                "
};
