/* XPM */
static char *cd8b5f279a354c16b68fdd6ffffe6986qLv24HDdCH0RpGij[] = {
/* columns rows colors chars-per-pixel */
"32 32 7 1 ",
"  c #6c947c",
". c black",
"X c #1A2B0B",
"o c #314E16",
"O c #4B692F",
"+ c #AD5213",
"@ c #DF7126",
/* pixels */
"                                ",
"                                ",
"                                ",
"               ..               ",
"               .O.              ",
"               .O.              ",
"            .. .O. ..           ",
"            .O.OO..O.           ",
"            .O.OO.OO.           ",
"            .oOOOOo.            ",
"             .oXXo.             ",
"            ........            ",
"           .++++++++.           ",
"          .++@@@++@@@.          ",
"          .@@@@@@@@@@.          ",
"          .@@@@@@@@@@.          ",
"          .@.@@@.@@@@.          ",
"     ...  .@.@@@.@@@@.  ...     ",
"    .@@@. .@@@@@@@@@@. .@@@.    ",
"    .@@@. .@@@@@@@@++. .@@@.    ",
"    .@@+. .@@@@@@@@@@. .+@@.    ",
"     ...  .@@@@@@@@@@.  ...     ",
"          .++@@@++@@@.          ",
"           .@@@@@@@@.           ",
"           .@@@@@@@@.           ",
"           .@@@@@@++.           ",
"            .+@@@@@.            ",
"             .++++.             ",
"              ....              ",
"                                ",
"                                ",
"                                "
};
