/* XPM */
static char *_646f9a1d0ed4748e1ae7060bd811ec2DgEypfIqgcLja8Pp[] = {
/* columns rows colors chars-per-pixel */
"32 32 4 1 ",
"  c #6c947c",
". c black",
"# c #B9BACA",
"0 c #CECFE0",
/* pixels */
"                                ",
"                                ",
"        ..   ..                 ",
"       .##. .00.                ",
"       .###..000.               ",
"       .###. .000.              ",
"       .###. .000.              ",
"        .##. .000.              ",
"        .###..000.              ",
"        .###. .000.             ",
"         .##. .000.             ",
"         .##. .000.             ",
"          .## 0000.             ",
"          .0000000.             ",
"         .00000000.             ",
"        .000000000.             ",
"        .0.000.000.             ",
"        .0.000.000...           ",
"        .00000000#000.          ",
"        .0000000#00000.         ",
"         .00000##000000.        ",
"          .#####00000000.       ",
"          .0###000000000.       ",
"          .00000000000000.      ",
"         .000000000000000.      ",
"         .00000000000000...     ",
"          .0000000000000 00.    ",
"           .000000000000000.    ",
"           .0000000000.000.     ",
"            ..00000... ...      ",
"              .....             ",
"                                "
};
