/* XPM */
static char *_330cf048d8d48f8bbe8e053925b119aQ7BlzpPzUb4AQ1l7[] = {
/* columns rows colors chars-per-pixel */
"32 32 17 1 ",
"  c #6c947c",
"0 c black",
". c #5F7A79",
"X c #90625D",
"o c #AA7959",
"O c #8A4A70",
"+ c #A35B70",
"@ c #AF6776",
"# c #BD757E",
"$ c #6E967C",
"% c #B68962",
"& c #C49A6C",
"* c #97BB8E",
"= c #D99A9A",
"- c #E8B5AC",
"; c #AED499",
": c #C2E09A",
/* pixels */
"            000000000           ",
"          00.........0          ",
"         0..*;;;;;;**.00        ",
"       0..*;;;:::;::;*..0       ",
"      0.*;;;;;:::;::;;**.0      ",
"     0.*;:::;:::;;;;;;;;*.0     ",
"    0.**;::::::;;;:::;;;**.0    ",
"    0.;;;;;::;;;;;:@@:@+**.0    ",
"   0.*;;;;;;;;;;;;@-=@##O;*.0   ",
"   0.*;;;;;;;;;;;;+=####O;*.0   ",
"   0.**@@;@+*;;;;;;+#@#O***.0   ",
"   0.*@-=@##O;;;;;;*OOO;**.0    ",
"   0.*+=####O***;;*;;;****.0    ",
"    0.*+#@#O***************.0   ",
"    0.**OOO****************.0   ",
"   0.$********************$.0   ",
"   0.$$$*$$**$$$*****$$$$$$.0   ",
"   0.$$$*$$**$$$@@*@+$$$$$$.0   ",
"   0.$$$$$$$$**@-=@##O**$$.0    ",
"    0.$$***$$$$+=####O$$$$.0    ",
"    0.$$$$$$$$$$+#@#O$$$$$.0    ",
"     0.$$$$$$$$$$OOO$$$$$.0     ",
"      0..$$$$$$$$$$$$$...0      ",
"        0.............000       ",
"         000XooooooX0           ",
"           0X%oooo%X0           ",
"           0X%%%%%%X0           ",
"           0X%&%&&&X0           ",
"          0X&&&&&&&&X0          ",
"           0&&&&&&&&0           ",
"            000&&000            ",
"                                "
};
